<svg viewBox="0 0 391.4 489" xmlns="http://www.w3.org/2000/svg"><path d="m440.1 422.7-28-315.3a13.5 13.5 0 0 0 -13.4-12.3h-57.6a96.6 96.6 0 0 0 -193.2 0h-57.6a13.4 13.4 0 0 0 -13.4 12.3l-28 315.3c0 .4-.1.8-.1 1.2 0 35.9 32.9 65.1 73.4 65.1h244.6c40.5 0 73.4-29.2 73.4-65.1a4.9 4.9 0 0 0 -.1-1.2zm-195.6-395.7a69.7 69.7 0 0 1 69.6 68.1h-139.2a69.7 69.7 0 0 1 69.6-68.1zm122.3 435h-244.6c-25.4 0-46-16.8-46.4-37.5l26.8-302.3h45.2v41a13.5 13.5 0 0 0 27 0v-41h139.3v41a13.5 13.5 0 0 0 27 0v-41h45.2l26.9 302.3c-.4 20.7-21.1 37.5-46.4 37.5z" fill="#fff" transform="translate(-48.8)"/><ellipse cx="192.2" cy="309" fill="none" rx="125" ry="126"/><text fill="#f8f8ff" font-family="MicrosoftSansSerif, Microsoft Sans Serif" font-size="161.82" transform="matrix(1.19 0 0 1 135 366.5)"></text></svg>
